<mxfile host="app.diagrams.net" modified="2021-08-20T09:45:05.850Z" agent="5.0 (Windows NT 10.0; Win64; x64) AppleWebKit/537.36 (KHTML, like Gecko) Chrome/90.0.4430.72 Safari/537.36" etag="nhwUnfqUl19NOt7HqW-k" version="14.9.7" type="github">
  <diagram id="xisVE48NQVb1xBqajWFZ" name="第 1 页">
    <mxGraphModel dx="253" dy="-892" grid="0" gridSize="10" guides="1" tooltips="1" connect="1" arrows="1" fold="1" page="1" pageScale="1" pageWidth="1169" pageHeight="827" math="0" shadow="0">
      <root>
        <mxCell id="0" />
        <mxCell id="1" parent="0" />
        <mxCell id="z69Q0Ix5x8a04kKxcAo6-1" value="" style="rounded=0;whiteSpace=wrap;html=1;fontFamily=Times New Roman;fontSize=16;align=left;verticalAlign=middle;dashed=1;dashPattern=1 4;strokeWidth=1;" vertex="1" parent="1">
          <mxGeometry x="1435" y="1761" width="841" height="590" as="geometry" />
        </mxCell>
        <mxCell id="z69Q0Ix5x8a04kKxcAo6-3" value="" style="rounded=0;whiteSpace=wrap;html=1;fontFamily=Times New Roman;fontSize=16;align=left;verticalAlign=middle;dashed=1;dashPattern=1 4;strokeWidth=1;" vertex="1" parent="1">
          <mxGeometry x="1258" y="1761" width="169" height="590" as="geometry" />
        </mxCell>
        <mxCell id="z69Q0Ix5x8a04kKxcAo6-56" style="edgeStyle=orthogonalEdgeStyle;curved=1;rounded=0;orthogonalLoop=1;jettySize=auto;html=1;fontSize=16;strokeWidth=2;exitX=0.5;exitY=1;exitDx=0;exitDy=0;entryX=1;entryY=0.617;entryDx=0;entryDy=0;entryPerimeter=0;" edge="1" parent="1" source="z69Q0Ix5x8a04kKxcAo6-21" target="z69Q0Ix5x8a04kKxcAo6-6">
          <mxGeometry relative="1" as="geometry">
            <mxPoint x="2063" y="2083.5" as="sourcePoint" />
            <mxPoint x="2063" y="1962.5" as="targetPoint" />
          </mxGeometry>
        </mxCell>
        <mxCell id="z69Q0Ix5x8a04kKxcAo6-2" value="" style="html=1;shadow=0;dashed=0;align=center;verticalAlign=middle;shape=mxgraph.arrows2.arrow;dy=0.6;dx=40;notch=0;fontFamily=Times New Roman;fontSize=16;strokeColor=#666666;strokeWidth=1;fillColor=#f5f5f5;gradientColor=#b3b3b3;" vertex="1" parent="1">
          <mxGeometry x="1712.0000000000002" y="2267.5" width="546.76" height="42" as="geometry" />
        </mxCell>
        <mxCell id="z69Q0Ix5x8a04kKxcAo6-4" style="edgeStyle=orthogonalEdgeStyle;curved=1;rounded=0;orthogonalLoop=1;jettySize=auto;html=1;fontSize=16;strokeWidth=2;" edge="1" parent="1" source="z69Q0Ix5x8a04kKxcAo6-5" target="z69Q0Ix5x8a04kKxcAo6-8">
          <mxGeometry relative="1" as="geometry" />
        </mxCell>
        <mxCell id="z69Q0Ix5x8a04kKxcAo6-5" value="Elaborate" style="rounded=1;whiteSpace=wrap;html=1;fillColor=#dae8fc;strokeColor=#6c8ebf;fontSize=16;fontStyle=1;gradientColor=#7ea6e0;" vertex="1" parent="1">
          <mxGeometry x="1276" y="1781" width="120" height="60" as="geometry" />
        </mxCell>
        <mxCell id="z69Q0Ix5x8a04kKxcAo6-6" value="Cleanup" style="rounded=1;whiteSpace=wrap;html=1;fillColor=#f5f5f5;strokeColor=#666666;fontSize=16;fontStyle=1;gradientColor=#b3b3b3;" vertex="1" parent="1">
          <mxGeometry x="1276" y="2093" width="120" height="60" as="geometry" />
        </mxCell>
        <mxCell id="z69Q0Ix5x8a04kKxcAo6-7" style="edgeStyle=orthogonalEdgeStyle;rounded=0;orthogonalLoop=1;jettySize=auto;html=1;entryX=0;entryY=0.5;entryDx=0;entryDy=0;fontSize=16;curved=1;strokeWidth=2;" edge="1" parent="1" source="z69Q0Ix5x8a04kKxcAo6-8" target="z69Q0Ix5x8a04kKxcAo6-10">
          <mxGeometry relative="1" as="geometry" />
        </mxCell>
        <mxCell id="z69Q0Ix5x8a04kKxcAo6-8" value="sc_start()" style="rounded=1;whiteSpace=wrap;html=1;fillColor=#d5e8d4;strokeColor=#82b366;fontSize=16;fontStyle=1;gradientColor=#97d077;" vertex="1" parent="1">
          <mxGeometry x="1276" y="1937" width="120" height="60" as="geometry" />
        </mxCell>
        <mxCell id="z69Q0Ix5x8a04kKxcAo6-9" style="edgeStyle=orthogonalEdgeStyle;curved=1;rounded=0;orthogonalLoop=1;jettySize=auto;html=1;entryX=0;entryY=0.5;entryDx=0;entryDy=0;fontSize=16;strokeWidth=2;" edge="1" parent="1" source="z69Q0Ix5x8a04kKxcAo6-10" target="z69Q0Ix5x8a04kKxcAo6-15">
          <mxGeometry relative="1" as="geometry" />
        </mxCell>
        <mxCell id="z69Q0Ix5x8a04kKxcAo6-10" value="PrepareStart()" style="rounded=1;whiteSpace=wrap;html=1;fillColor=#d5e8d4;strokeColor=#82b366;fontSize=16;fontStyle=1;verticalAlign=top;" vertex="1" parent="1">
          <mxGeometry x="1454.74" y="1781" width="208" height="119" as="geometry" />
        </mxCell>
        <mxCell id="z69Q0Ix5x8a04kKxcAo6-11" style="edgeStyle=orthogonalEdgeStyle;curved=1;rounded=0;orthogonalLoop=1;jettySize=auto;html=1;entryX=0;entryY=0.5;entryDx=0;entryDy=0;fontFamily=Times New Roman;fontSize=18;endArrow=open;endFill=0;strokeWidth=2;exitX=0.5;exitY=1;exitDx=0;exitDy=0;strokeColor=#FFD966;" edge="1" parent="1" source="z69Q0Ix5x8a04kKxcAo6-12" target="z69Q0Ix5x8a04kKxcAo6-49">
          <mxGeometry relative="1" as="geometry" />
        </mxCell>
        <mxCell id="z69Q0Ix5x8a04kKxcAo6-12" value="methods拆分" style="rounded=1;whiteSpace=wrap;html=1;fillColor=#fff2cc;strokeColor=#d6b656;fontSize=16;fontStyle=1;gradientColor=#ffd966;" vertex="1" parent="1">
          <mxGeometry x="1468.74" y="1823" width="76" height="60" as="geometry" />
        </mxCell>
        <mxCell id="z69Q0Ix5x8a04kKxcAo6-13" value="创建Event&lt;br&gt;序列" style="rounded=1;whiteSpace=wrap;html=1;fillColor=#e6d0de;strokeColor=#996185;fontSize=16;fontStyle=1;gradientColor=#d5739d;" vertex="1" parent="1">
          <mxGeometry x="1562.74" y="1823" width="90" height="60" as="geometry" />
        </mxCell>
        <mxCell id="z69Q0Ix5x8a04kKxcAo6-14" style="edgeStyle=orthogonalEdgeStyle;curved=1;rounded=0;orthogonalLoop=1;jettySize=auto;html=1;fontSize=16;strokeWidth=2;" edge="1" parent="1" source="z69Q0Ix5x8a04kKxcAo6-15" target="z69Q0Ix5x8a04kKxcAo6-17">
          <mxGeometry relative="1" as="geometry" />
        </mxCell>
        <mxCell id="z69Q0Ix5x8a04kKxcAo6-15" value="ZeroTickStart()" style="rounded=1;whiteSpace=wrap;html=1;fillColor=#d5e8d4;strokeColor=#82b366;fontSize=16;fontStyle=1;verticalAlign=top;" vertex="1" parent="1">
          <mxGeometry x="1701" y="1781" width="125.26" height="119" as="geometry" />
        </mxCell>
        <mxCell id="z69Q0Ix5x8a04kKxcAo6-16" value="加入0时刻&lt;br&gt;Event" style="rounded=1;whiteSpace=wrap;html=1;fillColor=#e6d0de;strokeColor=#996185;fontSize=16;fontStyle=1;gradientColor=#d5739d;" vertex="1" parent="1">
          <mxGeometry x="1727.26" y="1828" width="76" height="60" as="geometry" />
        </mxCell>
        <mxCell id="z69Q0Ix5x8a04kKxcAo6-17" value="执行" style="rounded=1;whiteSpace=wrap;html=1;fillColor=#d5e8d4;strokeColor=#82b366;fontSize=16;fontStyle=1;verticalAlign=top;" vertex="1" parent="1">
          <mxGeometry x="1881.5" y="1781" width="262" height="223.5" as="geometry" />
        </mxCell>
        <mxCell id="z69Q0Ix5x8a04kKxcAo6-18" value="" style="edgeStyle=orthogonalEdgeStyle;curved=1;rounded=0;orthogonalLoop=1;jettySize=auto;html=1;fontSize=16;strokeWidth=2;exitX=1;exitY=0.5;exitDx=0;exitDy=0;entryX=0;entryY=0.5;entryDx=0;entryDy=0;" edge="1" parent="1" source="z69Q0Ix5x8a04kKxcAo6-19" target="z69Q0Ix5x8a04kKxcAo6-53">
          <mxGeometry relative="1" as="geometry">
            <mxPoint x="2033.5" y="1847.5" as="targetPoint" />
          </mxGeometry>
        </mxCell>
        <mxCell id="z69Q0Ix5x8a04kKxcAo6-19" value="遍历Event序列" style="rounded=1;whiteSpace=wrap;html=1;fillColor=#d5e8d4;strokeColor=#82b366;fontSize=16;fontStyle=1;gradientColor=#97d077;" vertex="1" parent="1">
          <mxGeometry x="1922.5" y="1824" width="83" height="47" as="geometry" />
        </mxCell>
        <mxCell id="z69Q0Ix5x8a04kKxcAo6-20" style="edgeStyle=orthogonalEdgeStyle;curved=1;rounded=0;orthogonalLoop=1;jettySize=auto;html=1;entryX=0.5;entryY=0;entryDx=0;entryDy=0;fontSize=16;strokeWidth=2;startArrow=none;" edge="1" parent="1" source="z69Q0Ix5x8a04kKxcAo6-53" target="z69Q0Ix5x8a04kKxcAo6-23">
          <mxGeometry relative="1" as="geometry" />
        </mxCell>
        <mxCell id="z69Q0Ix5x8a04kKxcAo6-21" value="推进时钟" style="rounded=1;whiteSpace=wrap;html=1;fillColor=#d5e8d4;strokeColor=#82b366;fontSize=16;fontStyle=1;gradientColor=#97d077;" vertex="1" parent="1">
          <mxGeometry x="1922.5" y="1945" width="83" height="47" as="geometry" />
        </mxCell>
        <mxCell id="z69Q0Ix5x8a04kKxcAo6-22" style="edgeStyle=orthogonalEdgeStyle;curved=1;rounded=0;orthogonalLoop=1;jettySize=auto;html=1;fontSize=16;strokeWidth=2;exitX=0;exitY=0.5;exitDx=0;exitDy=0;entryX=0.25;entryY=1;entryDx=0;entryDy=0;" edge="1" parent="1" source="z69Q0Ix5x8a04kKxcAo6-23" target="z69Q0Ix5x8a04kKxcAo6-19">
          <mxGeometry relative="1" as="geometry" />
        </mxCell>
        <mxCell id="z69Q0Ix5x8a04kKxcAo6-23" value="更新Event序列" style="rounded=1;whiteSpace=wrap;html=1;fillColor=#d5e8d4;strokeColor=#82b366;fontSize=16;fontStyle=1;gradientColor=#97d077;" vertex="1" parent="1">
          <mxGeometry x="2046.5" y="1898" width="83" height="47" as="geometry" />
        </mxCell>
        <mxCell id="z69Q0Ix5x8a04kKxcAo6-24" value="(*SimManager)Start()" style="text;html=1;strokeColor=none;fillColor=none;align=center;verticalAlign=middle;whiteSpace=wrap;rounded=0;dashed=1;dashPattern=1 4;fontFamily=Times New Roman;fontSize=18;fontStyle=1" vertex="1" parent="1">
          <mxGeometry x="1688" y="1730" width="182" height="20" as="geometry" />
        </mxCell>
        <mxCell id="z69Q0Ix5x8a04kKxcAo6-25" value="sc_main()" style="text;html=1;strokeColor=none;fillColor=none;align=center;verticalAlign=middle;whiteSpace=wrap;rounded=0;dashed=1;dashPattern=1 4;fontFamily=Times New Roman;fontSize=18;fontStyle=1" vertex="1" parent="1">
          <mxGeometry x="1268" y="1730" width="136" height="20" as="geometry" />
        </mxCell>
        <mxCell id="z69Q0Ix5x8a04kKxcAo6-26" value="notify()" style="edgeStyle=orthogonalEdgeStyle;curved=1;rounded=0;orthogonalLoop=1;jettySize=auto;html=1;fontFamily=Times New Roman;fontSize=16;endArrow=open;endFill=0;strokeWidth=1;strokeColor=#97D077;fontColor=#97D077;exitX=1;exitY=0.5;exitDx=0;exitDy=0;" edge="1" parent="1" source="z69Q0Ix5x8a04kKxcAo6-49" target="z69Q0Ix5x8a04kKxcAo6-44">
          <mxGeometry x="0.6372" relative="1" as="geometry">
            <mxPoint as="offset" />
          </mxGeometry>
        </mxCell>
        <mxCell id="z69Q0Ix5x8a04kKxcAo6-27" value="notify(tx)" style="edgeStyle=orthogonalEdgeStyle;curved=1;rounded=0;orthogonalLoop=1;jettySize=auto;html=1;entryX=0.5;entryY=0;entryDx=0;entryDy=0;fontFamily=Times New Roman;fontSize=16;endArrow=open;endFill=0;strokeWidth=1;strokeColor=#B5739D;fontColor=#A680B8;exitX=1;exitY=0.5;exitDx=0;exitDy=0;" edge="1" parent="1" source="z69Q0Ix5x8a04kKxcAo6-50" target="z69Q0Ix5x8a04kKxcAo6-42">
          <mxGeometry x="0.6875" relative="1" as="geometry">
            <mxPoint as="offset" />
          </mxGeometry>
        </mxCell>
        <mxCell id="z69Q0Ix5x8a04kKxcAo6-28" value="notify(ZERO)" style="edgeStyle=orthogonalEdgeStyle;curved=1;rounded=0;orthogonalLoop=1;jettySize=auto;html=1;fontFamily=Times New Roman;fontSize=16;endArrow=open;endFill=0;strokeWidth=1;strokeColor=#FFB570;fontColor=#FFB570;exitX=1;exitY=0.5;exitDx=0;exitDy=0;" edge="1" parent="1" target="z69Q0Ix5x8a04kKxcAo6-43">
          <mxGeometry x="0.4595" y="-15" relative="1" as="geometry">
            <mxPoint x="1645.9999999999995" y="2192" as="sourcePoint" />
            <mxPoint as="offset" />
          </mxGeometry>
        </mxCell>
        <mxCell id="z69Q0Ix5x8a04kKxcAo6-29" style="edgeStyle=orthogonalEdgeStyle;curved=1;rounded=0;orthogonalLoop=1;jettySize=auto;html=1;entryX=0;entryY=0.5;entryDx=0;entryDy=0;fontFamily=Times New Roman;fontSize=18;endArrow=open;endFill=0;strokeWidth=2;exitX=0.5;exitY=1;exitDx=0;exitDy=0;strokeColor=#FFD966;" edge="1" parent="1" source="z69Q0Ix5x8a04kKxcAo6-12" target="z69Q0Ix5x8a04kKxcAo6-50">
          <mxGeometry relative="1" as="geometry">
            <mxPoint x="1561" y="1892.5" as="sourcePoint" />
            <mxPoint x="1599" y="1969.5" as="targetPoint" />
          </mxGeometry>
        </mxCell>
        <mxCell id="z69Q0Ix5x8a04kKxcAo6-30" style="edgeStyle=orthogonalEdgeStyle;curved=1;rounded=0;orthogonalLoop=1;jettySize=auto;html=1;entryX=0;entryY=0.5;entryDx=0;entryDy=0;fontFamily=Times New Roman;fontSize=18;endArrow=open;endFill=0;strokeWidth=2;strokeColor=#FFD966;exitX=0.5;exitY=1;exitDx=0;exitDy=0;" edge="1" parent="1" source="z69Q0Ix5x8a04kKxcAo6-12" target="z69Q0Ix5x8a04kKxcAo6-51">
          <mxGeometry relative="1" as="geometry">
            <mxPoint x="1571" y="1902.5" as="sourcePoint" />
            <mxPoint x="1609" y="1979.5" as="targetPoint" />
          </mxGeometry>
        </mxCell>
        <mxCell id="z69Q0Ix5x8a04kKxcAo6-31" value="" style="endArrow=classic;html=1;fontFamily=Times New Roman;fontSize=24;fontColor=#EA6B66;strokeColor=#0000FF;strokeWidth=2;entryX=0;entryY=0;entryDx=0;entryDy=0;entryPerimeter=0;" edge="1" parent="1">
          <mxGeometry width="50" height="50" relative="1" as="geometry">
            <mxPoint x="1723.7600000000007" y="2223" as="sourcePoint" />
            <mxPoint x="1723.7600000000007" y="2264" as="targetPoint" />
          </mxGeometry>
        </mxCell>
        <mxCell id="z69Q0Ix5x8a04kKxcAo6-32" value="" style="endArrow=none;html=1;fontFamily=Times New Roman;fontSize=24;fontColor=#EA6B66;strokeWidth=2;" edge="1" parent="1">
          <mxGeometry width="50" height="50" relative="1" as="geometry">
            <mxPoint x="1713.0000000000005" y="2266.9999999999995" as="sourcePoint" />
            <mxPoint x="2215" y="2266.9999999999995" as="targetPoint" />
          </mxGeometry>
        </mxCell>
        <mxCell id="z69Q0Ix5x8a04kKxcAo6-33" value="" style="endArrow=none;html=1;fontFamily=Times New Roman;fontSize=24;fontColor=#EA6B66;strokeWidth=2;" edge="1" parent="1">
          <mxGeometry width="50" height="50" relative="1" as="geometry">
            <mxPoint x="1713.0000000000005" y="2311" as="sourcePoint" />
            <mxPoint x="2215" y="2311" as="targetPoint" />
          </mxGeometry>
        </mxCell>
        <mxCell id="z69Q0Ix5x8a04kKxcAo6-34" style="edgeStyle=orthogonalEdgeStyle;curved=1;rounded=0;orthogonalLoop=1;jettySize=auto;html=1;entryX=0.5;entryY=0;entryDx=0;entryDy=0;fontFamily=Times New Roman;fontSize=16;fontColor=#000000;endArrow=open;endFill=0;strokeWidth=1;exitX=0.5;exitY=0;exitDx=0;exitDy=0;strokeColor=#0000FF;" edge="1" parent="1" source="z69Q0Ix5x8a04kKxcAo6-35" target="z69Q0Ix5x8a04kKxcAo6-37">
          <mxGeometry relative="1" as="geometry">
            <Array as="points">
              <mxPoint x="1725.0000000000002" y="2230" />
              <mxPoint x="1940.0000000000002" y="2230" />
            </Array>
          </mxGeometry>
        </mxCell>
        <mxCell id="z69Q0Ix5x8a04kKxcAo6-35" value="e_c" style="rounded=0;whiteSpace=wrap;html=1;shadow=0;fontFamily=Times New Roman;fontSize=16;strokeWidth=1;align=center;verticalAlign=middle;strokeColor=#0000FF;fillColor=#9999FF;gradientColor=#CC99FF;" vertex="1" parent="1">
          <mxGeometry x="1713.0000000000002" y="2271" width="24" height="35" as="geometry" />
        </mxCell>
        <mxCell id="z69Q0Ix5x8a04kKxcAo6-36" value="t=0" style="text;html=1;strokeColor=none;fillColor=none;align=center;verticalAlign=middle;whiteSpace=wrap;rounded=0;shadow=0;dashed=1;fontFamily=Times New Roman;fontSize=16;fontColor=#000000;" vertex="1" parent="1">
          <mxGeometry x="1705.0000000000002" y="2205" width="40" height="20" as="geometry" />
        </mxCell>
        <mxCell id="z69Q0Ix5x8a04kKxcAo6-37" value="e_c" style="rounded=0;whiteSpace=wrap;html=1;shadow=0;fontFamily=Times New Roman;fontSize=16;strokeWidth=1;align=center;verticalAlign=middle;strokeColor=#0000FF;fillColor=#9999FF;gradientColor=#CC99FF;" vertex="1" parent="1">
          <mxGeometry x="1927.5000000000002" y="2271" width="24" height="35" as="geometry" />
        </mxCell>
        <mxCell id="z69Q0Ix5x8a04kKxcAo6-38" value="e_c" style="rounded=0;whiteSpace=wrap;html=1;shadow=0;fontFamily=Times New Roman;fontSize=16;strokeWidth=1;align=center;verticalAlign=middle;strokeColor=#0000FF;fillColor=#9999FF;gradientColor=#CC99FF;" vertex="1" parent="1">
          <mxGeometry x="2143.5" y="2271" width="24" height="35" as="geometry" />
        </mxCell>
        <mxCell id="z69Q0Ix5x8a04kKxcAo6-39" style="edgeStyle=orthogonalEdgeStyle;curved=1;rounded=0;orthogonalLoop=1;jettySize=auto;html=1;entryX=0.5;entryY=0;entryDx=0;entryDy=0;fontFamily=Times New Roman;fontSize=16;fontColor=#000000;endArrow=open;endFill=0;strokeWidth=1;exitX=0.5;exitY=0;exitDx=0;exitDy=0;strokeColor=#0000FF;" edge="1" parent="1" source="z69Q0Ix5x8a04kKxcAo6-37" target="z69Q0Ix5x8a04kKxcAo6-38">
          <mxGeometry relative="1" as="geometry">
            <mxPoint x="1947.4800000000002" y="2261" as="sourcePoint" />
            <mxPoint x="2161.98" y="2261" as="targetPoint" />
            <Array as="points">
              <mxPoint x="1940.0000000000002" y="2228" />
              <mxPoint x="2156" y="2228" />
            </Array>
          </mxGeometry>
        </mxCell>
        <mxCell id="z69Q0Ix5x8a04kKxcAo6-40" value="t=10" style="text;html=1;strokeColor=none;fillColor=none;align=center;verticalAlign=middle;whiteSpace=wrap;rounded=0;shadow=0;dashed=1;fontFamily=Times New Roman;fontSize=16;fontColor=#000000;" vertex="1" parent="1">
          <mxGeometry x="1917.0000000000002" y="2205" width="40" height="20" as="geometry" />
        </mxCell>
        <mxCell id="z69Q0Ix5x8a04kKxcAo6-41" value="t=20" style="text;html=1;strokeColor=none;fillColor=none;align=center;verticalAlign=middle;whiteSpace=wrap;rounded=0;shadow=0;dashed=1;fontFamily=Times New Roman;fontSize=16;fontColor=#000000;" vertex="1" parent="1">
          <mxGeometry x="2135.5" y="2205" width="40" height="20" as="geometry" />
        </mxCell>
        <mxCell id="z69Q0Ix5x8a04kKxcAo6-42" value="e_2" style="rounded=0;whiteSpace=wrap;html=1;shadow=0;fontFamily=Times New Roman;fontSize=16;strokeColor=#d6b656;strokeWidth=1;align=center;verticalAlign=middle;fillColor=#E6D0DE;gradientColor=#CDA2BE;" vertex="1" parent="1">
          <mxGeometry x="1835.0000000000002" y="2271" width="24" height="35" as="geometry" />
        </mxCell>
        <mxCell id="z69Q0Ix5x8a04kKxcAo6-43" value="e_3" style="rounded=0;whiteSpace=wrap;html=1;shadow=0;fontFamily=Times New Roman;fontSize=16;strokeColor=#d6b656;strokeWidth=1;fillColor=#fff2cc;align=center;verticalAlign=middle;gradientColor=#ffd966;" vertex="1" parent="1">
          <mxGeometry x="1902.7400000000002" y="2271" width="24" height="35" as="geometry" />
        </mxCell>
        <mxCell id="z69Q0Ix5x8a04kKxcAo6-44" value="e_1" style="rounded=0;whiteSpace=wrap;html=1;shadow=0;fontFamily=Times New Roman;fontSize=16;strokeColor=#82b366;strokeWidth=1;fillColor=#d5e8d4;align=center;verticalAlign=middle;gradientColor=#97d077;" vertex="1" parent="1">
          <mxGeometry x="1747.9900000000002" y="2271" width="24" height="35" as="geometry" />
        </mxCell>
        <mxCell id="z69Q0Ix5x8a04kKxcAo6-45" value="e_4" style="rounded=0;whiteSpace=wrap;html=1;shadow=0;fontFamily=Times New Roman;fontSize=16;strokeColor=#d6b656;strokeWidth=1;align=center;verticalAlign=middle;fillColor=#E6D0DE;gradientColor=#CDA2BE;" vertex="1" parent="1">
          <mxGeometry x="2040" y="2271" width="24" height="35" as="geometry" />
        </mxCell>
        <mxCell id="z69Q0Ix5x8a04kKxcAo6-46" value="notify(ty)" style="edgeStyle=orthogonalEdgeStyle;curved=1;rounded=0;orthogonalLoop=1;jettySize=auto;html=1;entryX=0.5;entryY=0;entryDx=0;entryDy=0;fontFamily=Times New Roman;fontSize=16;endArrow=open;endFill=0;strokeWidth=1;strokeColor=#B5739D;fontColor=#A680B8;" edge="1" parent="1" source="z69Q0Ix5x8a04kKxcAo6-49" target="z69Q0Ix5x8a04kKxcAo6-45">
          <mxGeometry x="0.776" relative="1" as="geometry">
            <mxPoint x="1695.24" y="2080.5000000000005" as="sourcePoint" />
            <mxPoint x="1821.24" y="2309.5" as="targetPoint" />
            <mxPoint as="offset" />
          </mxGeometry>
        </mxCell>
        <mxCell id="z69Q0Ix5x8a04kKxcAo6-47" value="notify(tz)" style="edgeStyle=orthogonalEdgeStyle;curved=1;rounded=0;orthogonalLoop=1;jettySize=auto;html=1;fontFamily=Times New Roman;fontSize=16;endArrow=open;endFill=0;strokeWidth=1;strokeColor=#B5739D;exitX=1;exitY=0.5;exitDx=0;exitDy=0;fontColor=#A680B8;entryX=0.5;entryY=0;entryDx=0;entryDy=0;" edge="1" parent="1" target="z69Q0Ix5x8a04kKxcAo6-48">
          <mxGeometry x="0.7247" y="-38" relative="1" as="geometry">
            <mxPoint x="1645.9999999999995" y="2192" as="sourcePoint" />
            <mxPoint x="2187.5" y="2310.5" as="targetPoint" />
            <mxPoint as="offset" />
          </mxGeometry>
        </mxCell>
        <mxCell id="z69Q0Ix5x8a04kKxcAo6-48" value="e_4" style="rounded=0;whiteSpace=wrap;html=1;shadow=0;fontFamily=Times New Roman;fontSize=16;strokeColor=#d6b656;strokeWidth=1;align=center;verticalAlign=middle;fillColor=#E6D0DE;gradientColor=#CDA2BE;" vertex="1" parent="1">
          <mxGeometry x="2187" y="2271" width="24" height="35" as="geometry" />
        </mxCell>
        <mxCell id="z69Q0Ix5x8a04kKxcAo6-49" value="goroutine 1" style="label;whiteSpace=wrap;html=1;image=img/clipart/Gear_128x128.png;shadow=0;fontFamily=Times New Roman;fontSize=16;strokeColor=#b85450;strokeWidth=1;fillColor=#f8cecc;align=center;verticalAlign=middle;gradientColor=#ea6b66;" vertex="1" parent="1">
          <mxGeometry x="1532.74" y="1991" width="143" height="55" as="geometry" />
        </mxCell>
        <mxCell id="z69Q0Ix5x8a04kKxcAo6-50" value="goroutine 2" style="label;whiteSpace=wrap;html=1;image=img/clipart/Gear_128x128.png;shadow=0;fontFamily=Times New Roman;fontSize=16;strokeColor=#b85450;strokeWidth=1;fillColor=#f8cecc;align=center;verticalAlign=middle;gradientColor=#ea6b66;" vertex="1" parent="1">
          <mxGeometry x="1532.74" y="2078" width="143" height="55" as="geometry" />
        </mxCell>
        <mxCell id="z69Q0Ix5x8a04kKxcAo6-51" value="goroutine 3" style="label;whiteSpace=wrap;html=1;image=img/clipart/Gear_128x128.png;shadow=0;fontFamily=Times New Roman;fontSize=16;strokeColor=#b85450;strokeWidth=1;fillColor=#f8cecc;align=center;verticalAlign=middle;gradientColor=#ea6b66;" vertex="1" parent="1">
          <mxGeometry x="1532.74" y="2164" width="143" height="55" as="geometry" />
        </mxCell>
        <mxCell id="z69Q0Ix5x8a04kKxcAo6-52" value="Event序列" style="text;html=1;strokeColor=none;fillColor=none;align=center;verticalAlign=middle;whiteSpace=wrap;rounded=0;dashed=1;dashPattern=1 4;fontFamily=Times New Roman;fontSize=18;fontStyle=1" vertex="1" parent="1">
          <mxGeometry x="1900.5000000000002" y="2319" width="136" height="20" as="geometry" />
        </mxCell>
        <mxCell id="z69Q0Ix5x8a04kKxcAo6-53" value="触发Event" style="rounded=1;whiteSpace=wrap;html=1;fillColor=#d5e8d4;strokeColor=#82b366;fontSize=16;fontStyle=1;gradientColor=#97d077;" vertex="1" parent="1">
          <mxGeometry x="2046.5" y="1823" width="83" height="47" as="geometry" />
        </mxCell>
        <mxCell id="z69Q0Ix5x8a04kKxcAo6-54" style="edgeStyle=orthogonalEdgeStyle;curved=1;rounded=0;orthogonalLoop=1;jettySize=auto;html=1;fontSize=16;strokeWidth=2;exitX=0.5;exitY=1;exitDx=0;exitDy=0;entryX=1;entryY=0.5;entryDx=0;entryDy=0;" edge="1" parent="1" source="z69Q0Ix5x8a04kKxcAo6-23" target="z69Q0Ix5x8a04kKxcAo6-21">
          <mxGeometry relative="1" as="geometry">
            <mxPoint x="2025.2400000000002" y="1925.5" as="sourcePoint" />
            <mxPoint x="1925.25" y="1881" as="targetPoint" />
          </mxGeometry>
        </mxCell>
        <mxCell id="z69Q0Ix5x8a04kKxcAo6-55" style="edgeStyle=orthogonalEdgeStyle;curved=1;rounded=0;orthogonalLoop=1;jettySize=auto;html=1;fontSize=16;strokeWidth=2;exitX=0;exitY=0.5;exitDx=0;exitDy=0;entryX=0;entryY=0.5;entryDx=0;entryDy=0;" edge="1" parent="1" source="z69Q0Ix5x8a04kKxcAo6-21" target="z69Q0Ix5x8a04kKxcAo6-19">
          <mxGeometry relative="1" as="geometry">
            <mxPoint x="2066.7400000000002" y="1949" as="sourcePoint" />
            <mxPoint x="1984" y="1972.5" as="targetPoint" />
          </mxGeometry>
        </mxCell>
      </root>
    </mxGraphModel>
  </diagram>
</mxfile>
